<mxfile host="app.diagrams.net" modified="2023-11-06T19:25:10.933Z" agent="Mozilla/5.0 (Windows NT 10.0; Win64; x64) AppleWebKit/537.36 (KHTML, like Gecko) Chrome/119.0.0.0 Safari/537.36" etag="WKr9VmD0JFCAorA_ERFR" version="22.0.8" type="device">
  <diagram name="Page-1" id="Mv6sBD9H6kV1UXOC_IWm">
    <mxGraphModel dx="1434" dy="790" grid="0" gridSize="10" guides="1" tooltips="1" connect="1" arrows="1" fold="1" page="1" pageScale="1" pageWidth="827" pageHeight="1169" math="0" shadow="0">
      <root>
        <mxCell id="0" />
        <mxCell id="1" parent="0" />
        <mxCell id="2c1iKbKNR_HTmVodYejs-1" value="Sesong" style="swimlane;fontStyle=1;align=center;verticalAlign=top;childLayout=stackLayout;horizontal=1;startSize=26;horizontalStack=0;resizeParent=1;resizeParentMax=0;resizeLast=0;collapsible=1;marginBottom=0;whiteSpace=wrap;html=1;fillColor=#dae8fc;strokeColor=#6c8ebf;" parent="1" vertex="1">
          <mxGeometry x="507" y="81" width="160" height="68" as="geometry" />
        </mxCell>
        <mxCell id="2c1iKbKNR_HTmVodYejs-2" value="+ sesong_beskrivelse (PK)" style="text;strokeColor=none;fillColor=none;align=left;verticalAlign=top;spacingLeft=4;spacingRight=4;overflow=hidden;rotatable=0;points=[[0,0.5],[1,0.5]];portConstraint=eastwest;whiteSpace=wrap;html=1;" parent="2c1iKbKNR_HTmVodYejs-1" vertex="1">
          <mxGeometry y="26" width="160" height="34" as="geometry" />
        </mxCell>
        <mxCell id="2c1iKbKNR_HTmVodYejs-3" value="" style="line;strokeWidth=1;fillColor=none;align=left;verticalAlign=middle;spacingTop=-1;spacingLeft=3;spacingRight=3;rotatable=0;labelPosition=right;points=[];portConstraint=eastwest;strokeColor=inherit;" parent="2c1iKbKNR_HTmVodYejs-1" vertex="1">
          <mxGeometry y="60" width="160" height="8" as="geometry" />
        </mxCell>
        <mxCell id="2c1iKbKNR_HTmVodYejs-5" value="Divisjon" style="swimlane;fontStyle=1;align=center;verticalAlign=top;childLayout=stackLayout;horizontal=1;startSize=26;horizontalStack=0;resizeParent=1;resizeParentMax=0;resizeLast=0;collapsible=1;marginBottom=0;whiteSpace=wrap;html=1;fillColor=#dae8fc;strokeColor=#6c8ebf;" parent="1" vertex="1">
          <mxGeometry x="507" y="213" width="160" height="98" as="geometry" />
        </mxCell>
        <mxCell id="2c1iKbKNR_HTmVodYejs-6" value="+ divisjon_id (PK)&lt;br&gt;+ divisjon_tittel&lt;br&gt;+ land&lt;br&gt;+ sesong_beskrivelse (FK)" style="text;strokeColor=none;fillColor=none;align=left;verticalAlign=top;spacingLeft=4;spacingRight=4;overflow=hidden;rotatable=0;points=[[0,0.5],[1,0.5]];portConstraint=eastwest;whiteSpace=wrap;html=1;" parent="2c1iKbKNR_HTmVodYejs-5" vertex="1">
          <mxGeometry y="26" width="160" height="64" as="geometry" />
        </mxCell>
        <mxCell id="2c1iKbKNR_HTmVodYejs-7" value="" style="line;strokeWidth=1;fillColor=none;align=left;verticalAlign=middle;spacingTop=-1;spacingLeft=3;spacingRight=3;rotatable=0;labelPosition=right;points=[];portConstraint=eastwest;strokeColor=inherit;" parent="2c1iKbKNR_HTmVodYejs-5" vertex="1">
          <mxGeometry y="90" width="160" height="8" as="geometry" />
        </mxCell>
        <mxCell id="2c1iKbKNR_HTmVodYejs-8" value="Fotballklubb" style="swimlane;fontStyle=1;align=center;verticalAlign=top;childLayout=stackLayout;horizontal=1;startSize=26;horizontalStack=0;resizeParent=1;resizeParentMax=0;resizeLast=0;collapsible=1;marginBottom=0;whiteSpace=wrap;html=1;fillColor=#dae8fc;strokeColor=#6c8ebf;" parent="1" vertex="1">
          <mxGeometry x="221" y="603" width="160" height="143" as="geometry" />
        </mxCell>
        <mxCell id="2c1iKbKNR_HTmVodYejs-9" value="+ fotballklubb_id (PK)&lt;br&gt;+ divisjon_id (FK)&lt;br&gt;+ fotballklubb_navn&lt;br&gt;+ bane&lt;br&gt;+ etableringsår&lt;br&gt;+ markedsverdi&lt;br&gt;+ eier" style="text;strokeColor=none;fillColor=none;align=left;verticalAlign=top;spacingLeft=4;spacingRight=4;overflow=hidden;rotatable=0;points=[[0,0.5],[1,0.5]];portConstraint=eastwest;whiteSpace=wrap;html=1;" parent="2c1iKbKNR_HTmVodYejs-8" vertex="1">
          <mxGeometry y="26" width="160" height="109" as="geometry" />
        </mxCell>
        <mxCell id="2c1iKbKNR_HTmVodYejs-10" value="" style="line;strokeWidth=1;fillColor=none;align=left;verticalAlign=middle;spacingTop=-1;spacingLeft=3;spacingRight=3;rotatable=0;labelPosition=right;points=[];portConstraint=eastwest;strokeColor=inherit;" parent="2c1iKbKNR_HTmVodYejs-8" vertex="1">
          <mxGeometry y="135" width="160" height="8" as="geometry" />
        </mxCell>
        <mxCell id="2c1iKbKNR_HTmVodYejs-11" value="Spiller" style="swimlane;fontStyle=1;align=center;verticalAlign=top;childLayout=stackLayout;horizontal=1;startSize=26;horizontalStack=0;resizeParent=1;resizeParentMax=0;resizeLast=0;collapsible=1;marginBottom=0;whiteSpace=wrap;html=1;fillColor=#dae8fc;strokeColor=#6c8ebf;" parent="1" vertex="1">
          <mxGeometry x="514" y="593" width="160" height="148" as="geometry" />
        </mxCell>
        <mxCell id="2c1iKbKNR_HTmVodYejs-12" value="+ spiller_id (PK)&lt;br&gt;+ klubb_id (FK)&lt;br&gt;+ fornavn&lt;br&gt;+ etternavn&lt;br&gt;+ nasjonalitet&lt;br&gt;+ alder&lt;br&gt;+ posisjon" style="text;strokeColor=none;fillColor=none;align=left;verticalAlign=top;spacingLeft=4;spacingRight=4;overflow=hidden;rotatable=0;points=[[0,0.5],[1,0.5]];portConstraint=eastwest;whiteSpace=wrap;html=1;" parent="2c1iKbKNR_HTmVodYejs-11" vertex="1">
          <mxGeometry y="26" width="160" height="114" as="geometry" />
        </mxCell>
        <mxCell id="2c1iKbKNR_HTmVodYejs-13" value="" style="line;strokeWidth=1;fillColor=none;align=left;verticalAlign=middle;spacingTop=-1;spacingLeft=3;spacingRight=3;rotatable=0;labelPosition=right;points=[];portConstraint=eastwest;strokeColor=inherit;" parent="2c1iKbKNR_HTmVodYejs-11" vertex="1">
          <mxGeometry y="140" width="160" height="8" as="geometry" />
        </mxCell>
        <mxCell id="2c1iKbKNR_HTmVodYejs-17" value="Ligatabell" style="swimlane;fontStyle=1;align=center;verticalAlign=top;childLayout=stackLayout;horizontal=1;startSize=26;horizontalStack=0;resizeParent=1;resizeParentMax=0;resizeLast=0;collapsible=1;marginBottom=0;whiteSpace=wrap;html=1;fillColor=#dae8fc;strokeColor=#6c8ebf;" parent="1" vertex="1">
          <mxGeometry x="221" y="213" width="160" height="78" as="geometry" />
        </mxCell>
        <mxCell id="2c1iKbKNR_HTmVodYejs-18" value="+ ligatabell_id (PK)&lt;br&gt;+ divisjon_id (FK)&lt;br&gt;" style="text;strokeColor=none;fillColor=none;align=left;verticalAlign=top;spacingLeft=4;spacingRight=4;overflow=hidden;rotatable=0;points=[[0,0.5],[1,0.5]];portConstraint=eastwest;whiteSpace=wrap;html=1;" parent="2c1iKbKNR_HTmVodYejs-17" vertex="1">
          <mxGeometry y="26" width="160" height="44" as="geometry" />
        </mxCell>
        <mxCell id="2c1iKbKNR_HTmVodYejs-19" value="" style="line;strokeWidth=1;fillColor=none;align=left;verticalAlign=middle;spacingTop=-1;spacingLeft=3;spacingRight=3;rotatable=0;labelPosition=right;points=[];portConstraint=eastwest;strokeColor=inherit;" parent="2c1iKbKNR_HTmVodYejs-17" vertex="1">
          <mxGeometry y="70" width="160" height="8" as="geometry" />
        </mxCell>
        <mxCell id="2c1iKbKNR_HTmVodYejs-20" value="Klubbinfo" style="swimlane;fontStyle=1;align=center;verticalAlign=top;childLayout=stackLayout;horizontal=1;startSize=26;horizontalStack=0;resizeParent=1;resizeParentMax=0;resizeLast=0;collapsible=1;marginBottom=0;whiteSpace=wrap;html=1;fillColor=#dae8fc;strokeColor=#6c8ebf;" parent="1" vertex="1">
          <mxGeometry x="221" y="345" width="160" height="215" as="geometry" />
        </mxCell>
        <mxCell id="2c1iKbKNR_HTmVodYejs-21" value="+ klubbinfo_id (PK)&lt;br&gt;+ ligatabell_id (FK)&lt;br&gt;+ fotballklubb_id (FK)&lt;br&gt;+ plassering&lt;br&gt;+ kamper_spilt&lt;br&gt;+ vunnet&lt;br&gt;+ uavgjort&lt;br&gt;+ tapt&lt;br&gt;+ mål_scoret&lt;br&gt;+ mål sluppet_inn&lt;br&gt;+ gule_kort&lt;br&gt;+ røde_kort&lt;br&gt;+ poeng" style="text;strokeColor=none;fillColor=none;align=left;verticalAlign=top;spacingLeft=4;spacingRight=4;overflow=hidden;rotatable=0;points=[[0,0.5],[1,0.5]];portConstraint=eastwest;whiteSpace=wrap;html=1;" parent="2c1iKbKNR_HTmVodYejs-20" vertex="1">
          <mxGeometry y="26" width="160" height="181" as="geometry" />
        </mxCell>
        <mxCell id="2c1iKbKNR_HTmVodYejs-22" value="" style="line;strokeWidth=1;fillColor=none;align=left;verticalAlign=middle;spacingTop=-1;spacingLeft=3;spacingRight=3;rotatable=0;labelPosition=right;points=[];portConstraint=eastwest;strokeColor=inherit;" parent="2c1iKbKNR_HTmVodYejs-20" vertex="1">
          <mxGeometry y="207" width="160" height="8" as="geometry" />
        </mxCell>
        <mxCell id="2c1iKbKNR_HTmVodYejs-26" value="Kamp" style="swimlane;fontStyle=1;align=center;verticalAlign=top;childLayout=stackLayout;horizontal=1;startSize=26;horizontalStack=0;resizeParent=1;resizeParentMax=0;resizeLast=0;collapsible=1;marginBottom=0;whiteSpace=wrap;html=1;fillColor=#dae8fc;strokeColor=#6c8ebf;" parent="1" vertex="1">
          <mxGeometry x="793" y="213" width="160" height="100" as="geometry" />
        </mxCell>
        <mxCell id="2c1iKbKNR_HTmVodYejs-27" value="+ kamp_id (PK)&lt;br&gt;+ divisjon_id (PK)&lt;br&gt;+ matchday&lt;br&gt;+ dato" style="text;strokeColor=none;fillColor=none;align=left;verticalAlign=top;spacingLeft=4;spacingRight=4;overflow=hidden;rotatable=0;points=[[0,0.5],[1,0.5]];portConstraint=eastwest;whiteSpace=wrap;html=1;" parent="2c1iKbKNR_HTmVodYejs-26" vertex="1">
          <mxGeometry y="26" width="160" height="66" as="geometry" />
        </mxCell>
        <mxCell id="2c1iKbKNR_HTmVodYejs-28" value="" style="line;strokeWidth=1;fillColor=none;align=left;verticalAlign=middle;spacingTop=-1;spacingLeft=3;spacingRight=3;rotatable=0;labelPosition=right;points=[];portConstraint=eastwest;strokeColor=inherit;" parent="2c1iKbKNR_HTmVodYejs-26" vertex="1">
          <mxGeometry y="92" width="160" height="8" as="geometry" />
        </mxCell>
        <mxCell id="2c1iKbKNR_HTmVodYejs-29" value="Kampstatistikk" style="swimlane;fontStyle=1;align=center;verticalAlign=top;childLayout=stackLayout;horizontal=1;startSize=26;horizontalStack=0;resizeParent=1;resizeParentMax=0;resizeLast=0;collapsible=1;marginBottom=0;whiteSpace=wrap;html=1;fillColor=#dae8fc;strokeColor=#6c8ebf;" parent="1" vertex="1">
          <mxGeometry x="793" y="358" width="160" height="176" as="geometry" />
        </mxCell>
        <mxCell id="2c1iKbKNR_HTmVodYejs-30" value="+ kampstatistikk_id (PK)&lt;br&gt;+ kamp_id (FK)&lt;br&gt;+ resultat&lt;br&gt;+ skudd_på_mal&lt;br&gt;+ ballbesittelse&lt;br&gt;+ hjørnespark&lt;br&gt;+ pasninger&lt;br&gt;+ gule_kort&lt;br&gt;+ røde_kort" style="text;strokeColor=none;fillColor=none;align=left;verticalAlign=top;spacingLeft=4;spacingRight=4;overflow=hidden;rotatable=0;points=[[0,0.5],[1,0.5]];portConstraint=eastwest;whiteSpace=wrap;html=1;" parent="2c1iKbKNR_HTmVodYejs-29" vertex="1">
          <mxGeometry y="26" width="160" height="142" as="geometry" />
        </mxCell>
        <mxCell id="2c1iKbKNR_HTmVodYejs-31" value="" style="line;strokeWidth=1;fillColor=none;align=left;verticalAlign=middle;spacingTop=-1;spacingLeft=3;spacingRight=3;rotatable=0;labelPosition=right;points=[];portConstraint=eastwest;strokeColor=inherit;" parent="2c1iKbKNR_HTmVodYejs-29" vertex="1">
          <mxGeometry y="168" width="160" height="8" as="geometry" />
        </mxCell>
        <mxCell id="2c1iKbKNR_HTmVodYejs-32" value="Hjemmelag" style="swimlane;fontStyle=1;align=center;verticalAlign=top;childLayout=stackLayout;horizontal=1;startSize=26;horizontalStack=0;resizeParent=1;resizeParentMax=0;resizeLast=0;collapsible=1;marginBottom=0;whiteSpace=wrap;html=1;fillColor=#dae8fc;strokeColor=#6c8ebf;" parent="1" vertex="1">
          <mxGeometry x="711" y="583" width="160" height="66" as="geometry" />
        </mxCell>
        <mxCell id="2c1iKbKNR_HTmVodYejs-33" value="+ fotballklubb_id (FK)" style="text;strokeColor=none;fillColor=none;align=left;verticalAlign=top;spacingLeft=4;spacingRight=4;overflow=hidden;rotatable=0;points=[[0,0.5],[1,0.5]];portConstraint=eastwest;whiteSpace=wrap;html=1;" parent="2c1iKbKNR_HTmVodYejs-32" vertex="1">
          <mxGeometry y="26" width="160" height="32" as="geometry" />
        </mxCell>
        <mxCell id="2c1iKbKNR_HTmVodYejs-34" value="" style="line;strokeWidth=1;fillColor=none;align=left;verticalAlign=middle;spacingTop=-1;spacingLeft=3;spacingRight=3;rotatable=0;labelPosition=right;points=[];portConstraint=eastwest;strokeColor=inherit;" parent="2c1iKbKNR_HTmVodYejs-32" vertex="1">
          <mxGeometry y="58" width="160" height="8" as="geometry" />
        </mxCell>
        <mxCell id="2c1iKbKNR_HTmVodYejs-35" value="Bortelag" style="swimlane;fontStyle=1;align=center;verticalAlign=top;childLayout=stackLayout;horizontal=1;startSize=26;horizontalStack=0;resizeParent=1;resizeParentMax=0;resizeLast=0;collapsible=1;marginBottom=0;whiteSpace=wrap;html=1;fillColor=#dae8fc;strokeColor=#6c8ebf;" parent="1" vertex="1">
          <mxGeometry x="888" y="583" width="160" height="64" as="geometry" />
        </mxCell>
        <mxCell id="2c1iKbKNR_HTmVodYejs-36" value="+ fotballklubb_id (FK)" style="text;strokeColor=none;fillColor=none;align=left;verticalAlign=top;spacingLeft=4;spacingRight=4;overflow=hidden;rotatable=0;points=[[0,0.5],[1,0.5]];portConstraint=eastwest;whiteSpace=wrap;html=1;" parent="2c1iKbKNR_HTmVodYejs-35" vertex="1">
          <mxGeometry y="26" width="160" height="30" as="geometry" />
        </mxCell>
        <mxCell id="2c1iKbKNR_HTmVodYejs-37" value="" style="line;strokeWidth=1;fillColor=none;align=left;verticalAlign=middle;spacingTop=-1;spacingLeft=3;spacingRight=3;rotatable=0;labelPosition=right;points=[];portConstraint=eastwest;strokeColor=inherit;" parent="2c1iKbKNR_HTmVodYejs-35" vertex="1">
          <mxGeometry y="56" width="160" height="8" as="geometry" />
        </mxCell>
        <mxCell id="uBbu8vYLhO5ZoivYr1Gl-1" value="Spillerstatistikk" style="swimlane;fontStyle=1;align=center;verticalAlign=top;childLayout=stackLayout;horizontal=1;startSize=26;horizontalStack=0;resizeParent=1;resizeParentMax=0;resizeLast=0;collapsible=1;marginBottom=0;whiteSpace=wrap;html=1;fillColor=#dae8fc;strokeColor=#6c8ebf;" vertex="1" parent="1">
          <mxGeometry x="510" y="351" width="160" height="184" as="geometry" />
        </mxCell>
        <mxCell id="uBbu8vYLhO5ZoivYr1Gl-2" value="+ spillerstatistikk_id (PK)&lt;br&gt;+ kamp_id (FK)&lt;br&gt;+ skudd_på_mål&lt;br&gt;+ dribblinger&lt;br&gt;+ pasninger&lt;br&gt;+ innlegg&lt;br&gt;+ røde_kort&lt;br&gt;+ gule_kort&lt;br&gt;+ km_tilbakelagt&lt;br&gt;+ antall_mistet_ballen" style="text;strokeColor=none;fillColor=none;align=left;verticalAlign=top;spacingLeft=4;spacingRight=4;overflow=hidden;rotatable=0;points=[[0,0.5],[1,0.5]];portConstraint=eastwest;whiteSpace=wrap;html=1;" vertex="1" parent="uBbu8vYLhO5ZoivYr1Gl-1">
          <mxGeometry y="26" width="160" height="150" as="geometry" />
        </mxCell>
        <mxCell id="uBbu8vYLhO5ZoivYr1Gl-3" value="" style="line;strokeWidth=1;fillColor=none;align=left;verticalAlign=middle;spacingTop=-1;spacingLeft=3;spacingRight=3;rotatable=0;labelPosition=right;points=[];portConstraint=eastwest;strokeColor=inherit;" vertex="1" parent="uBbu8vYLhO5ZoivYr1Gl-1">
          <mxGeometry y="176" width="160" height="8" as="geometry" />
        </mxCell>
        <mxCell id="uBbu8vYLhO5ZoivYr1Gl-4" value="" style="endArrow=block;endSize=16;endFill=0;html=1;rounded=0;entryX=0.475;entryY=0.25;entryDx=0;entryDy=0;entryPerimeter=0;" edge="1" parent="1" target="2c1iKbKNR_HTmVodYejs-31">
          <mxGeometry width="160" relative="1" as="geometry">
            <mxPoint x="869" y="557" as="sourcePoint" />
            <mxPoint x="869" y="534" as="targetPoint" />
          </mxGeometry>
        </mxCell>
        <mxCell id="uBbu8vYLhO5ZoivYr1Gl-5" value="" style="endArrow=none;html=1;rounded=0;exitX=0.5;exitY=0;exitDx=0;exitDy=0;edgeStyle=orthogonalEdgeStyle;" edge="1" parent="1" source="2c1iKbKNR_HTmVodYejs-32">
          <mxGeometry relative="1" as="geometry">
            <mxPoint x="720" y="586" as="sourcePoint" />
            <mxPoint x="870" y="559" as="targetPoint" />
            <Array as="points">
              <mxPoint x="789" y="583" />
              <mxPoint x="789" y="566" />
              <mxPoint x="870" y="566" />
            </Array>
          </mxGeometry>
        </mxCell>
        <mxCell id="uBbu8vYLhO5ZoivYr1Gl-6" value="" style="endArrow=none;html=1;rounded=0;entryX=0.5;entryY=0;entryDx=0;entryDy=0;edgeStyle=orthogonalEdgeStyle;" edge="1" parent="1" target="2c1iKbKNR_HTmVodYejs-35">
          <mxGeometry relative="1" as="geometry">
            <mxPoint x="870" y="560" as="sourcePoint" />
            <mxPoint x="947" y="586" as="targetPoint" />
            <Array as="points">
              <mxPoint x="870" y="566" />
              <mxPoint x="968" y="566" />
            </Array>
          </mxGeometry>
        </mxCell>
        <mxCell id="uBbu8vYLhO5ZoivYr1Gl-7" value="{total, OR}" style="text;html=1;strokeColor=none;fillColor=none;align=center;verticalAlign=middle;whiteSpace=wrap;rounded=0;" vertex="1" parent="1">
          <mxGeometry x="796" y="541" width="60" height="30" as="geometry" />
        </mxCell>
        <mxCell id="uBbu8vYLhO5ZoivYr1Gl-8" value="" style="endArrow=none;html=1;rounded=0;exitX=0.5;exitY=0;exitDx=0;exitDy=0;entryX=0.5;entryY=1;entryDx=0;entryDy=0;" edge="1" parent="1" source="2c1iKbKNR_HTmVodYejs-5" target="2c1iKbKNR_HTmVodYejs-1">
          <mxGeometry relative="1" as="geometry">
            <mxPoint x="746" y="209" as="sourcePoint" />
            <mxPoint x="745" y="128" as="targetPoint" />
          </mxGeometry>
        </mxCell>
        <mxCell id="uBbu8vYLhO5ZoivYr1Gl-9" value="1..1" style="edgeLabel;resizable=0;html=1;align=left;verticalAlign=bottom;" connectable="0" vertex="1" parent="uBbu8vYLhO5ZoivYr1Gl-8">
          <mxGeometry x="-1" relative="1" as="geometry">
            <mxPoint x="-25" y="-49" as="offset" />
          </mxGeometry>
        </mxCell>
        <mxCell id="uBbu8vYLhO5ZoivYr1Gl-10" value="1..5" style="edgeLabel;resizable=0;html=1;align=right;verticalAlign=bottom;" connectable="0" vertex="1" parent="uBbu8vYLhO5ZoivYr1Gl-8">
          <mxGeometry x="1" relative="1" as="geometry">
            <mxPoint x="-5" y="62" as="offset" />
          </mxGeometry>
        </mxCell>
        <mxCell id="uBbu8vYLhO5ZoivYr1Gl-11" value="" style="endArrow=none;html=1;rounded=0;exitX=1.013;exitY=0.727;exitDx=0;exitDy=0;entryX=0;entryY=0.5;entryDx=0;entryDy=0;exitPerimeter=0;" edge="1" parent="1" source="2c1iKbKNR_HTmVodYejs-18" target="2c1iKbKNR_HTmVodYejs-6">
          <mxGeometry relative="1" as="geometry">
            <mxPoint x="435" y="327" as="sourcePoint" />
            <mxPoint x="435" y="263" as="targetPoint" />
          </mxGeometry>
        </mxCell>
        <mxCell id="uBbu8vYLhO5ZoivYr1Gl-12" value="1..1" style="edgeLabel;resizable=0;html=1;align=left;verticalAlign=bottom;" connectable="0" vertex="1" parent="uBbu8vYLhO5ZoivYr1Gl-11">
          <mxGeometry x="-1" relative="1" as="geometry">
            <mxPoint x="4" y="-1" as="offset" />
          </mxGeometry>
        </mxCell>
        <mxCell id="uBbu8vYLhO5ZoivYr1Gl-13" value="1..1" style="edgeLabel;resizable=0;html=1;align=right;verticalAlign=bottom;" connectable="0" vertex="1" parent="uBbu8vYLhO5ZoivYr1Gl-11">
          <mxGeometry x="1" relative="1" as="geometry">
            <mxPoint x="-8" y="-1" as="offset" />
          </mxGeometry>
        </mxCell>
        <mxCell id="uBbu8vYLhO5ZoivYr1Gl-14" value="+ har sesonger" style="text;html=1;strokeColor=none;fillColor=none;align=center;verticalAlign=middle;whiteSpace=wrap;rounded=0;" vertex="1" parent="1">
          <mxGeometry x="585" y="170" width="98" height="30" as="geometry" />
        </mxCell>
        <mxCell id="uBbu8vYLhO5ZoivYr1Gl-15" value="+ har tabell" style="text;html=1;strokeColor=none;fillColor=none;align=center;verticalAlign=middle;whiteSpace=wrap;rounded=0;" vertex="1" parent="1">
          <mxGeometry x="395" y="237" width="98" height="30" as="geometry" />
        </mxCell>
        <mxCell id="uBbu8vYLhO5ZoivYr1Gl-16" value="+ har har klubbinfo" style="text;html=1;strokeColor=none;fillColor=none;align=center;verticalAlign=middle;whiteSpace=wrap;rounded=0;" vertex="1" parent="1">
          <mxGeometry x="304" y="306" width="114" height="30" as="geometry" />
        </mxCell>
        <mxCell id="uBbu8vYLhO5ZoivYr1Gl-17" value="" style="endArrow=none;html=1;rounded=0;exitX=0.5;exitY=0;exitDx=0;exitDy=0;entryX=0.5;entryY=0.375;entryDx=0;entryDy=0;entryPerimeter=0;" edge="1" parent="1" source="2c1iKbKNR_HTmVodYejs-20" target="2c1iKbKNR_HTmVodYejs-19">
          <mxGeometry relative="1" as="geometry">
            <mxPoint x="263" y="373" as="sourcePoint" />
            <mxPoint x="263" y="309" as="targetPoint" />
          </mxGeometry>
        </mxCell>
        <mxCell id="uBbu8vYLhO5ZoivYr1Gl-18" value="1..1" style="edgeLabel;resizable=0;html=1;align=left;verticalAlign=bottom;" connectable="0" vertex="1" parent="uBbu8vYLhO5ZoivYr1Gl-17">
          <mxGeometry x="-1" relative="1" as="geometry">
            <mxPoint x="-26" y="-36" as="offset" />
          </mxGeometry>
        </mxCell>
        <mxCell id="uBbu8vYLhO5ZoivYr1Gl-19" value="0..20" style="edgeLabel;resizable=0;html=1;align=right;verticalAlign=bottom;" connectable="0" vertex="1" parent="uBbu8vYLhO5ZoivYr1Gl-17">
          <mxGeometry x="1" relative="1" as="geometry">
            <mxPoint x="-3" y="57" as="offset" />
          </mxGeometry>
        </mxCell>
        <mxCell id="uBbu8vYLhO5ZoivYr1Gl-20" value="" style="endArrow=none;html=1;rounded=0;exitX=0.5;exitY=0;exitDx=0;exitDy=0;entryX=0.5;entryY=1;entryDx=0;entryDy=0;" edge="1" parent="1" source="2c1iKbKNR_HTmVodYejs-8" target="2c1iKbKNR_HTmVodYejs-20">
          <mxGeometry relative="1" as="geometry">
            <mxPoint x="303" y="591" as="sourcePoint" />
            <mxPoint x="301" y="566" as="targetPoint" />
          </mxGeometry>
        </mxCell>
        <mxCell id="uBbu8vYLhO5ZoivYr1Gl-21" value="1..1" style="edgeLabel;resizable=0;html=1;align=left;verticalAlign=bottom;" connectable="0" vertex="1" parent="uBbu8vYLhO5ZoivYr1Gl-20">
          <mxGeometry x="-1" relative="1" as="geometry">
            <mxPoint x="-24" y="-24" as="offset" />
          </mxGeometry>
        </mxCell>
        <mxCell id="uBbu8vYLhO5ZoivYr1Gl-22" value="1..1" style="edgeLabel;resizable=0;html=1;align=right;verticalAlign=bottom;" connectable="0" vertex="1" parent="uBbu8vYLhO5ZoivYr1Gl-20">
          <mxGeometry x="1" relative="1" as="geometry">
            <mxPoint x="-3" y="43" as="offset" />
          </mxGeometry>
        </mxCell>
        <mxCell id="uBbu8vYLhO5ZoivYr1Gl-23" value="+ har har klubbinfo" style="text;html=1;strokeColor=none;fillColor=none;align=center;verticalAlign=middle;whiteSpace=wrap;rounded=0;" vertex="1" parent="1">
          <mxGeometry x="302" y="567" width="114" height="30" as="geometry" />
        </mxCell>
        <mxCell id="uBbu8vYLhO5ZoivYr1Gl-24" value="" style="endArrow=none;html=1;rounded=0;exitX=0.988;exitY=0.33;exitDx=0;exitDy=0;exitPerimeter=0;entryX=-0.006;entryY=0.412;entryDx=0;entryDy=0;entryPerimeter=0;" edge="1" parent="1" source="2c1iKbKNR_HTmVodYejs-9" target="2c1iKbKNR_HTmVodYejs-12">
          <mxGeometry relative="1" as="geometry">
            <mxPoint x="410" y="665" as="sourcePoint" />
            <mxPoint x="486" y="668" as="targetPoint" />
          </mxGeometry>
        </mxCell>
        <mxCell id="uBbu8vYLhO5ZoivYr1Gl-25" value="1..1" style="edgeLabel;resizable=0;html=1;align=left;verticalAlign=bottom;" connectable="0" vertex="1" parent="uBbu8vYLhO5ZoivYr1Gl-24">
          <mxGeometry x="-1" relative="1" as="geometry">
            <mxPoint x="4" y="-1" as="offset" />
          </mxGeometry>
        </mxCell>
        <mxCell id="uBbu8vYLhO5ZoivYr1Gl-26" value="0..*" style="edgeLabel;resizable=0;html=1;align=right;verticalAlign=bottom;" connectable="0" vertex="1" parent="uBbu8vYLhO5ZoivYr1Gl-24">
          <mxGeometry x="1" relative="1" as="geometry">
            <mxPoint x="-8" y="-1" as="offset" />
          </mxGeometry>
        </mxCell>
        <mxCell id="uBbu8vYLhO5ZoivYr1Gl-27" value="+ har spillere" style="text;html=1;strokeColor=none;fillColor=none;align=center;verticalAlign=middle;whiteSpace=wrap;rounded=0;" vertex="1" parent="1">
          <mxGeometry x="399" y="623" width="98" height="30" as="geometry" />
        </mxCell>
        <mxCell id="uBbu8vYLhO5ZoivYr1Gl-28" value="" style="endArrow=none;html=1;rounded=0;" edge="1" parent="1">
          <mxGeometry relative="1" as="geometry">
            <mxPoint x="590" y="593" as="sourcePoint" />
            <mxPoint x="590" y="533" as="targetPoint" />
          </mxGeometry>
        </mxCell>
        <mxCell id="uBbu8vYLhO5ZoivYr1Gl-29" value="1..1" style="edgeLabel;resizable=0;html=1;align=left;verticalAlign=bottom;" connectable="0" vertex="1" parent="uBbu8vYLhO5ZoivYr1Gl-28">
          <mxGeometry x="-1" relative="1" as="geometry">
            <mxPoint x="4" y="-1" as="offset" />
          </mxGeometry>
        </mxCell>
        <mxCell id="uBbu8vYLhO5ZoivYr1Gl-30" value="0..1" style="edgeLabel;resizable=0;html=1;align=right;verticalAlign=bottom;" connectable="0" vertex="1" parent="uBbu8vYLhO5ZoivYr1Gl-28">
          <mxGeometry x="1" relative="1" as="geometry">
            <mxPoint x="22" y="19" as="offset" />
          </mxGeometry>
        </mxCell>
        <mxCell id="uBbu8vYLhO5ZoivYr1Gl-31" value="+ har spillerstatistikk" style="text;html=1;strokeColor=none;fillColor=none;align=center;verticalAlign=middle;whiteSpace=wrap;rounded=0;" vertex="1" parent="1">
          <mxGeometry x="592" y="549" width="112" height="30" as="geometry" />
        </mxCell>
        <mxCell id="uBbu8vYLhO5ZoivYr1Gl-32" value="" style="endArrow=none;html=1;rounded=0;exitX=1;exitY=0.5;exitDx=0;exitDy=0;entryX=0;entryY=0.5;entryDx=0;entryDy=0;" edge="1" parent="1" source="2c1iKbKNR_HTmVodYejs-6" target="2c1iKbKNR_HTmVodYejs-27">
          <mxGeometry relative="1" as="geometry">
            <mxPoint x="728" y="176" as="sourcePoint" />
            <mxPoint x="792" y="271" as="targetPoint" />
          </mxGeometry>
        </mxCell>
        <mxCell id="uBbu8vYLhO5ZoivYr1Gl-33" value="1..1" style="edgeLabel;resizable=0;html=1;align=left;verticalAlign=bottom;" connectable="0" vertex="1" parent="uBbu8vYLhO5ZoivYr1Gl-32">
          <mxGeometry x="-1" relative="1" as="geometry">
            <mxPoint x="4" y="-1" as="offset" />
          </mxGeometry>
        </mxCell>
        <mxCell id="uBbu8vYLhO5ZoivYr1Gl-34" value="0..190" style="edgeLabel;resizable=0;html=1;align=right;verticalAlign=bottom;" connectable="0" vertex="1" parent="uBbu8vYLhO5ZoivYr1Gl-32">
          <mxGeometry x="1" relative="1" as="geometry">
            <mxPoint x="-8" y="-1" as="offset" />
          </mxGeometry>
        </mxCell>
        <mxCell id="uBbu8vYLhO5ZoivYr1Gl-35" value="+ har kamper" style="text;html=1;strokeColor=none;fillColor=none;align=center;verticalAlign=middle;whiteSpace=wrap;rounded=0;" vertex="1" parent="1">
          <mxGeometry x="680" y="231" width="98" height="30" as="geometry" />
        </mxCell>
        <mxCell id="uBbu8vYLhO5ZoivYr1Gl-36" value="" style="endArrow=none;html=1;rounded=0;exitX=0.494;exitY=0.875;exitDx=0;exitDy=0;entryX=0.5;entryY=0;entryDx=0;entryDy=0;exitPerimeter=0;" edge="1" parent="1" source="2c1iKbKNR_HTmVodYejs-28" target="2c1iKbKNR_HTmVodYejs-29">
          <mxGeometry relative="1" as="geometry">
            <mxPoint x="993" y="375" as="sourcePoint" />
            <mxPoint x="1118" y="375" as="targetPoint" />
          </mxGeometry>
        </mxCell>
        <mxCell id="uBbu8vYLhO5ZoivYr1Gl-37" value="1..1" style="edgeLabel;resizable=0;html=1;align=left;verticalAlign=bottom;" connectable="0" vertex="1" parent="uBbu8vYLhO5ZoivYr1Gl-36">
          <mxGeometry x="-1" relative="1" as="geometry">
            <mxPoint x="4" y="16" as="offset" />
          </mxGeometry>
        </mxCell>
        <mxCell id="uBbu8vYLhO5ZoivYr1Gl-38" value="2..2" style="edgeLabel;resizable=0;html=1;align=right;verticalAlign=bottom;" connectable="0" vertex="1" parent="uBbu8vYLhO5ZoivYr1Gl-36">
          <mxGeometry x="1" relative="1" as="geometry">
            <mxPoint x="24" y="-2" as="offset" />
          </mxGeometry>
        </mxCell>
        <mxCell id="uBbu8vYLhO5ZoivYr1Gl-39" value="+ har kampstatistikk" style="text;html=1;strokeColor=none;fillColor=none;align=center;verticalAlign=middle;whiteSpace=wrap;rounded=0;" vertex="1" parent="1">
          <mxGeometry x="900" y="321" width="136" height="30" as="geometry" />
        </mxCell>
        <mxCell id="uBbu8vYLhO5ZoivYr1Gl-40" value="" style="endArrow=none;html=1;rounded=0;exitX=0.75;exitY=1;exitDx=0;exitDy=0;entryX=0.5;entryY=1;entryDx=0;entryDy=0;edgeStyle=orthogonalEdgeStyle;" edge="1" parent="1" source="2c1iKbKNR_HTmVodYejs-8" target="2c1iKbKNR_HTmVodYejs-32">
          <mxGeometry relative="1" as="geometry">
            <mxPoint x="479" y="888" as="sourcePoint" />
            <mxPoint x="605" y="888" as="targetPoint" />
            <Array as="points">
              <mxPoint x="341" y="792" />
              <mxPoint x="791" y="792" />
            </Array>
          </mxGeometry>
        </mxCell>
        <mxCell id="uBbu8vYLhO5ZoivYr1Gl-41" value="1..1" style="edgeLabel;resizable=0;html=1;align=left;verticalAlign=bottom;" connectable="0" vertex="1" parent="uBbu8vYLhO5ZoivYr1Gl-40">
          <mxGeometry x="-1" relative="1" as="geometry">
            <mxPoint x="8" y="21" as="offset" />
          </mxGeometry>
        </mxCell>
        <mxCell id="uBbu8vYLhO5ZoivYr1Gl-42" value="0..19" style="edgeLabel;resizable=0;html=1;align=right;verticalAlign=bottom;" connectable="0" vertex="1" parent="uBbu8vYLhO5ZoivYr1Gl-40">
          <mxGeometry x="1" relative="1" as="geometry">
            <mxPoint x="-6" y="22" as="offset" />
          </mxGeometry>
        </mxCell>
        <mxCell id="uBbu8vYLhO5ZoivYr1Gl-43" value="" style="endArrow=none;html=1;rounded=0;exitX=0.25;exitY=1;exitDx=0;exitDy=0;entryX=0.5;entryY=0.875;entryDx=0;entryDy=0;entryPerimeter=0;edgeStyle=orthogonalEdgeStyle;" edge="1" parent="1" source="2c1iKbKNR_HTmVodYejs-8" target="2c1iKbKNR_HTmVodYejs-37">
          <mxGeometry relative="1" as="geometry">
            <mxPoint x="250" y="794" as="sourcePoint" />
            <mxPoint x="660" y="697" as="targetPoint" />
            <Array as="points">
              <mxPoint x="261" y="836" />
              <mxPoint x="968" y="836" />
            </Array>
          </mxGeometry>
        </mxCell>
        <mxCell id="uBbu8vYLhO5ZoivYr1Gl-44" value="1..1" style="edgeLabel;resizable=0;html=1;align=left;verticalAlign=bottom;" connectable="0" vertex="1" parent="uBbu8vYLhO5ZoivYr1Gl-43">
          <mxGeometry x="-1" relative="1" as="geometry">
            <mxPoint x="8" y="21" as="offset" />
          </mxGeometry>
        </mxCell>
        <mxCell id="uBbu8vYLhO5ZoivYr1Gl-45" value="0..19" style="edgeLabel;resizable=0;html=1;align=right;verticalAlign=bottom;" connectable="0" vertex="1" parent="uBbu8vYLhO5ZoivYr1Gl-43">
          <mxGeometry x="1" relative="1" as="geometry">
            <mxPoint x="-6" y="22" as="offset" />
          </mxGeometry>
        </mxCell>
        <mxCell id="uBbu8vYLhO5ZoivYr1Gl-46" value="" style="endArrow=none;html=1;rounded=0;exitX=0.5;exitY=0;exitDx=0;exitDy=0;entryX=0.25;entryY=1;entryDx=0;entryDy=0;edgeStyle=orthogonalEdgeStyle;" edge="1" parent="1" source="uBbu8vYLhO5ZoivYr1Gl-1" target="2c1iKbKNR_HTmVodYejs-26">
          <mxGeometry relative="1" as="geometry">
            <mxPoint x="690" y="346" as="sourcePoint" />
            <mxPoint x="816" y="346" as="targetPoint" />
          </mxGeometry>
        </mxCell>
        <mxCell id="uBbu8vYLhO5ZoivYr1Gl-47" value="0..*" style="edgeLabel;resizable=0;html=1;align=left;verticalAlign=bottom;" connectable="0" vertex="1" parent="uBbu8vYLhO5ZoivYr1Gl-46">
          <mxGeometry x="-1" relative="1" as="geometry">
            <mxPoint x="4" y="-1" as="offset" />
          </mxGeometry>
        </mxCell>
        <mxCell id="uBbu8vYLhO5ZoivYr1Gl-48" value="1..1" style="edgeLabel;resizable=0;html=1;align=right;verticalAlign=bottom;" connectable="0" vertex="1" parent="uBbu8vYLhO5ZoivYr1Gl-46">
          <mxGeometry x="1" relative="1" as="geometry">
            <mxPoint x="-19" y="15" as="offset" />
          </mxGeometry>
        </mxCell>
        <mxCell id="uBbu8vYLhO5ZoivYr1Gl-49" value="+ har spillerkamper" style="text;html=1;strokeColor=none;fillColor=none;align=center;verticalAlign=middle;whiteSpace=wrap;rounded=0;" vertex="1" parent="1">
          <mxGeometry x="677" y="302" width="110" height="30" as="geometry" />
        </mxCell>
      </root>
    </mxGraphModel>
  </diagram>
</mxfile>
